<svg width="32" height="32" viewBox="0 0 32 32" fill="none" xmlns="http://www.w3.org/2000/svg">
<rect width="32" height="32" rx="10" fill="white" fill-opacity="0.8"/>
<g clip-path="url(#clip0_8113_295)">
<path d="M11.4286 11.3594V9.64062C11.4286 9.35703 11.6576 9.125 11.9375 9.125H13.6339C13.9138 9.125 14.1429 9.35703 14.1429 9.64062V11.3594C14.1429 11.643 13.9138 11.875 13.6339 11.875H11.9375C11.6576 11.875 11.4286 11.643 11.4286 11.3594ZM17.3661 11.875H19.0625C19.3424 11.875 19.5714 11.643 19.5714 11.3594V9.64062C19.5714 9.35703 19.3424 9.125 19.0625 9.125H17.3661C17.0862 9.125 16.8571 9.35703 16.8571 9.64062V11.3594C16.8571 11.643 17.0862 11.875 17.3661 11.875ZM11.9375 16H13.6339C13.9138 16 14.1429 15.768 14.1429 15.4844V13.7656C14.1429 13.482 13.9138 13.25 13.6339 13.25H11.9375C11.6576 13.25 11.4286 13.482 11.4286 13.7656V15.4844C11.4286 15.768 11.6576 16 11.9375 16ZM17.3661 16H19.0625C19.3424 16 19.5714 15.768 19.5714 15.4844V13.7656C19.5714 13.482 19.3424 13.25 19.0625 13.25H17.3661C17.0862 13.25 16.8571 13.482 16.8571 13.7656V15.4844C16.8571 15.768 17.0862 16 17.3661 16ZM14.1429 19.6094V17.8906C14.1429 17.607 13.9138 17.375 13.6339 17.375H11.9375C11.6576 17.375 11.4286 17.607 11.4286 17.8906V19.6094C11.4286 19.893 11.6576 20.125 11.9375 20.125H13.6339C13.9138 20.125 14.1429 19.893 14.1429 19.6094ZM17.3661 20.125H19.0625C19.3424 20.125 19.5714 19.893 19.5714 19.6094V17.8906C19.5714 17.607 19.3424 17.375 19.0625 17.375H17.3661C17.0862 17.375 16.8571 17.607 16.8571 17.8906V19.6094C16.8571 19.893 17.0862 20.125 17.3661 20.125ZM25 25.4531V27H6V25.4531C6 25.1695 6.22902 24.9375 6.50893 24.9375H7.33594V6.03125C7.33594 5.45977 7.78973 5 8.35379 5H22.6462C23.2103 5 23.6641 5.45977 23.6641 6.03125V24.9375H24.4911C24.771 24.9375 25 25.1695 25 25.4531ZM9.37165 24.8945H14.1429V22.0156C14.1429 21.732 14.3719 21.5 14.6518 21.5H16.3482C16.6281 21.5 16.8571 21.732 16.8571 22.0156V24.8945H21.6283V7.10547L9.39286 7.0625L9.37165 24.8945Z" fill="#649FBF"/>
</g>
<defs>
<clipPath id="clip0_8113_295">
<rect width="19" height="22" fill="white" transform="translate(6 5)"/>
</clipPath>
</defs>
</svg>
