<svg width="32" height="32" viewBox="0 0 32 32" fill="none" xmlns="http://www.w3.org/2000/svg">
<rect width="32" height="32" rx="10" fill="white"/>
<path d="M20.335 9.88147L23.5467 13.0091C23.682 13.1409 23.682 13.3559 23.5467 13.4876L15.7703 21.0606L12.4661 21.4178C12.0245 21.4663 11.6507 21.1022 11.7005 20.6723L12.0673 17.4544L19.8436 9.88147C19.9789 9.74971 20.1997 9.74971 20.335 9.88147ZM26.1032 9.08742L24.3656 7.39529C23.8244 6.86824 22.9449 6.86824 22.4002 7.39529L21.1397 8.62278C21.0044 8.75454 21.0044 8.96953 21.1397 9.10129L24.3514 12.229C24.4867 12.3607 24.7074 12.3607 24.8427 12.229L26.1032 11.0015C26.6444 10.4709 26.6444 9.61448 26.1032 9.08742ZM19.6727 19.0009V22.5308H8.27879V11.4349H16.4611C16.575 11.4349 16.6818 11.3898 16.7637 11.3135L18.188 9.92655C18.4586 9.66302 18.2663 9.21572 17.8853 9.21572H7.70909C6.76553 9.21572 6 9.96122 6 10.8801V23.0856C6 24.0045 6.76553 24.75 7.70909 24.75H20.2424C21.186 24.75 21.9515 24.0045 21.9515 23.0856V17.6139C21.9515 17.2429 21.4922 17.0591 21.2216 17.3192L19.7973 18.7062C19.719 18.7859 19.6727 18.89 19.6727 19.0009Z" fill="#649FBF"/>
</svg>
