<svg width="32" height="32" viewBox="0 0 32 32" fill="none" xmlns="http://www.w3.org/2000/svg">
<rect width="32" height="32" rx="10" fill="white" fill-opacity="0.8"/>
<path d="M22.4015 19.2635H25.6643C26.2649 19.2635 26.752 19.7628 26.752 20.3784V23.723C26.752 24.3386 26.2649 24.8379 25.6643 24.8379H22.4015C21.801 24.8379 21.3139 24.3386 21.3139 23.723V20.3784C21.3139 19.7628 21.801 19.2635 22.4015 19.2635ZM23.2172 16.4764H16.6916V18.1487H15.0602V16.4764H8.5346V18.1487H6.90319V16.1423C6.90319 15.4047 7.4888 14.8041 8.20865 14.8041H15.0602V12.5743H13.7007C13.1002 12.5743 12.6131 12.0751 12.6131 11.4595V8.11487C12.6131 7.49925 13.1002 7 13.7007 7H18.0511C18.6517 7 19.1387 7.49925 19.1387 8.11487V11.4595C19.1387 12.0751 18.6517 12.5743 18.0511 12.5743H16.6916V14.8041H23.5432C24.263 14.8041 24.8486 15.4044 24.8486 16.1423V18.1487H23.2172V16.4764ZM14.2445 19.2635H17.5073C18.1079 19.2635 18.5949 19.7628 18.5949 20.3784V23.723C18.5949 24.3386 18.1079 24.8379 17.5073 24.8379H14.2445C13.644 24.8379 13.1569 24.3386 13.1569 23.723V20.3784C13.1569 19.7628 13.644 19.2635 14.2445 19.2635ZM6.08749 19.2635H9.3503C9.95086 19.2635 10.4379 19.7628 10.4379 20.3784V23.723C10.4379 24.3386 9.95086 24.8379 9.3503 24.8379H6.08749C5.48693 24.8379 4.99989 24.3386 4.99989 23.723V20.3784C4.99989 19.7628 5.48693 19.2635 6.08749 19.2635Z" fill="#649FBF"/>
</svg>
