<svg width="36" height="39" viewBox="0 0 36 39" fill="none" xmlns="http://www.w3.org/2000/svg">
<rect width="32" height="32" rx="10" fill="white" fill-opacity="0.8"/>
<g clip-path="url(#clip0_8113_365)">
<path d="M25.6339 20.5671C24.8145 19.6751 23.2814 18.3332 23.2814 13.9375C23.2814 10.5988 20.9708 7.92617 17.8553 7.27047V6.375C17.8553 5.61574 17.248 5 16.4991 5C15.7501 5 15.1428 5.61574 15.1428 6.375V7.27047C12.0273 7.92617 9.71673 10.5988 9.71673 13.9375C9.71673 18.3332 8.18358 19.6751 7.36421 20.5671C7.10974 20.8443 6.99693 21.1756 6.99905 21.5C7.00372 22.2047 7.54954 22.875 8.36044 22.875H24.6377C25.4486 22.875 25.9948 22.2047 25.9991 21.5C26.0012 21.1756 25.8884 20.8439 25.6339 20.5671ZM9.86305 20.8125C10.763 19.6107 11.7469 17.6186 11.7516 13.9624C11.7516 13.9538 11.7491 13.9461 11.7491 13.9375C11.7491 11.2795 13.8755 9.125 16.4991 9.125C19.1226 9.125 21.2491 11.2795 21.2491 13.9375C21.2491 13.9461 21.2465 13.9538 21.2465 13.9624C21.2512 17.6191 22.2351 19.6111 23.1351 20.8125H9.86305ZM16.4991 27C17.997 27 19.2121 25.7689 19.2121 24.25H13.786C13.786 25.7689 15.0011 27 16.4991 27Z" fill="#649FBF"/>
</g>
<rect x="22" y="24" width="13.6727" height="14.0155" rx="4" fill="white"/>
<path d="M31.1669 30.6172V31.2095C31.1669 31.3491 31.0533 31.4633 30.9144 31.4633H27.3797C27.2409 31.4633 27.1273 31.3491 27.1273 31.2095V30.6172C27.1273 30.4776 27.2409 30.3634 27.3797 30.3634H30.9144C31.0533 30.3634 31.1669 30.4776 31.1669 30.6172ZM30.9144 32.1402H27.3797C27.2409 32.1402 27.1273 32.2544 27.1273 32.394V32.9863C27.1273 33.1259 27.2409 33.2401 27.3797 33.2401H30.9144C31.0533 33.2401 31.1669 33.1259 31.1669 32.9863V32.394C31.1669 32.2544 31.0533 32.1402 30.9144 32.1402ZM33.1868 28.1614V35.1862C33.1868 35.7467 32.7344 36.2015 32.1768 36.2015H26.1173C25.5598 36.2015 25.1074 35.7467 25.1074 35.1862V26.3867C25.1074 25.8261 25.5598 25.3713 26.1173 25.3713H30.4116C30.6788 25.3713 30.9355 25.4792 31.1248 25.6696L32.8901 27.4443C33.0795 27.6326 33.1868 27.8927 33.1868 28.1614ZM30.4936 26.4692V28.0789H32.0948L30.4936 26.4692ZM32.1768 35.1862V29.0942H29.9887C29.7089 29.0942 29.4837 28.8679 29.4837 28.5865V26.3867H26.1173V35.1862H32.1768Z" fill="#649FBF"/>
<defs>
<clipPath id="clip0_8113_365">
<rect width="19" height="22" fill="white" transform="translate(7 5)"/>
</clipPath>
</defs>
</svg>
