<svg width="32" height="32" viewBox="0 0 32 32" fill="none" xmlns="http://www.w3.org/2000/svg">
<rect width="32" height="32" rx="10" fill="white" fill-opacity="0.8"/>
<path d="M16.3901 15.556C19.0382 15.556 21.1844 13.4171 21.1844 10.778C21.1844 8.1389 19.0382 6 16.3901 6C13.742 6 11.5957 8.1389 11.5957 10.778C11.5957 13.4171 13.742 15.556 16.3901 15.556ZM19.7461 16.7505H19.1206C18.2891 17.1313 17.3639 17.3478 16.3901 17.3478C15.4162 17.3478 14.4948 17.1313 13.6596 16.7505H13.034C10.2548 16.7505 8 18.9977 8 21.7674V23.3203C8 24.3095 8.8053 25.112 9.79787 25.112H22.9823C23.9749 25.112 24.7802 24.3095 24.7802 23.3203V21.7674C24.7802 18.9977 22.5253 16.7505 19.7461 16.7505Z" fill="#649FBF"/>
</svg>
