<svg width="16" height="16" viewBox="0 0 16 16" fill="none" xmlns="http://www.w3.org/2000/svg">
<path d="M10 8.25C10 9.49375 8.99375 10.5 7.75 10.5C6.50625 10.5 5.5 9.49375 5.5 8.25C5.5 7.00625 6.50625 6 7.75 6C8.99375 6 10 7.00625 10 8.25ZM13.25 6C12.0063 6 11 7.00625 11 8.25C11 9.49375 12.0063 10.5 13.25 10.5C14.4937 10.5 15.5 9.49375 15.5 8.25C15.5 7.00625 14.4937 6 13.25 6ZM2.25 6C1.00625 6 0 7.00625 0 8.25C0 9.49375 1.00625 10.5 2.25 10.5C3.49375 10.5 4.5 9.49375 4.5 8.25C4.5 7.00625 3.49375 6 2.25 6Z" fill="white"/>
</svg>
