<svg width="64" height="64" viewBox="0 0 64 64" fill="none" xmlns="http://www.w3.org/2000/svg">
<rect width="64" height="64" fill="#DBDBDB"/>
<path d="M44.8718 46H43.6575V17.5C43.6575 16.6716 43.0052 16 42.2004 16H21.8004C20.9956 16 20.3432 16.6716 20.3432 17.5V46H19.129C18.7266 46 18.4004 46.3358 18.4004 46.75V48H45.6004V46.75C45.6004 46.3358 45.2742 46 44.8718 46ZM26.1718 20.75C26.1718 20.3358 26.498 20 26.9004 20H29.329C29.7313 20 30.0575 20.3358 30.0575 20.75V23.25C30.0575 23.6642 29.7313 24 29.329 24H26.9004C26.498 24 26.1718 23.6642 26.1718 23.25V20.75ZM26.1718 26.75C26.1718 26.3358 26.498 26 26.9004 26H29.329C29.7313 26 30.0575 26.3358 30.0575 26.75V29.25C30.0575 29.6642 29.7313 30 29.329 30H26.9004C26.498 30 26.1718 29.6642 26.1718 29.25V26.75ZM29.329 36H26.9004C26.498 36 26.1718 35.6642 26.1718 35.25V32.75C26.1718 32.3358 26.498 32 26.9004 32H29.329C29.7313 32 30.0575 32.3358 30.0575 32.75V35.25C30.0575 35.6642 29.7313 36 29.329 36ZM33.9432 46H30.0575V40.75C30.0575 40.3358 30.3838 40 30.7861 40H33.2147C33.617 40 33.9432 40.3358 33.9432 40.75V46ZM37.829 35.25C37.829 35.6642 37.5027 36 37.1004 36H34.6718C34.2695 36 33.9432 35.6642 33.9432 35.25V32.75C33.9432 32.3358 34.2695 32 34.6718 32H37.1004C37.5027 32 37.829 32.3358 37.829 32.75V35.25ZM37.829 29.25C37.829 29.6642 37.5027 30 37.1004 30H34.6718C34.2695 30 33.9432 29.6642 33.9432 29.25V26.75C33.9432 26.3358 34.2695 26 34.6718 26H37.1004C37.5027 26 37.829 26.3358 37.829 26.75V29.25ZM37.829 23.25C37.829 23.6642 37.5027 24 37.1004 24H34.6718C34.2695 24 33.9432 23.6642 33.9432 23.25V20.75C33.9432 20.3358 34.2695 20 34.6718 20H37.1004C37.5027 20 37.829 20.3358 37.829 20.75V23.25Z" fill="white"/>
</svg>
